<svg preserveAspectRatio="none" width="100%" height="100%" overflow="visible" style="display: block;" viewBox="0 0 86 40" fill="none" xmlns="http://www.w3.org/2000/svg">
<g id="Grid List">
<rect id="Background" x="0.5" y="0.5" width="85" height="39" rx="19.5" fill="var(--fill-0, #F9F9F9)" stroke="var(--stroke-0, #EFEFF4)"/>
<path id="Icon Dashboard" fill-rule="evenodd" clip-rule="evenodd" d="M53.6364 17.5V11.6667H56.9091V13.3333H58.5463V17.5H53.6364ZM58.5455 10H53.6364C52.7339 10 52 10.7483 52 11.6667V17.5C52 18.4183 52.7339 19.1667 53.6364 19.1667H58.5455C59.4479 19.1667 60.1818 18.4183 60.1818 17.5V11.6667C60.1818 10.7483 59.4479 10 58.5455 10V10ZM63.4545 17.5V11.6667H66.7273V13.3333H68.3645V17.5H63.4545ZM68.3636 10H63.4545C62.5521 10 61.8182 10.7483 61.8182 11.6667V17.5C61.8182 18.4183 62.5521 19.1667 63.4545 19.1667H68.3636C69.2661 19.1667 70 18.4183 70 17.5V11.6667C70 10.7483 69.2661 10 68.3636 10V10ZM53.6364 28.3333V22.5H56.9091V24.1667H58.5463V28.3333H53.6364ZM58.5455 20.8333H53.6364C52.7339 20.8333 52 21.5817 52 22.5V28.3333C52 29.2517 52.7339 30 53.6364 30H58.5455C59.4479 30 60.1818 29.2517 60.1818 28.3333V22.5C60.1818 21.5817 59.4479 20.8333 58.5455 20.8333V20.8333ZM63.4545 28.3333V22.5H66.7273V24.1667H68.3645V28.3333H63.4545ZM68.3636 20.8333H63.4545C62.5521 20.8333 61.8182 21.5817 61.8182 22.5V28.3333C61.8182 29.2517 62.5521 30 63.4545 30H68.3636C69.2661 30 70 29.2517 70 28.3333V22.5C70 21.5817 69.2661 20.8333 68.3636 20.8333V20.8333Z" fill="var(--fill-0, #8A8A8F)"/>
<path id="Icon List" fill-rule="evenodd" clip-rule="evenodd" d="M18.0136 13.4178C17.6443 13.4178 17.3419 13.7353 17.3419 14.1266C17.3419 14.5165 17.6428 14.8355 18.0136 14.8355C18.3844 14.8355 18.6853 14.518 18.6853 14.1266C18.6839 13.7353 18.383 13.4178 18.0136 13.4178ZM16 14.1251C16 12.9527 16.9027 12 18.0136 12C19.1245 12 20.0273 12.9527 20.0273 14.1251C20.0273 15.2976 19.1231 16.2503 18.0136 16.2503C16.9041 16.2503 16 15.2976 16 14.1251ZM24.3355 15.1874C23.7487 15.1874 23.273 14.7117 23.273 14.125V14.125C23.273 13.5382 23.7487 13.0625 24.3355 13.0625H34.9375C35.5243 13.0625 36 13.5382 36 14.125V14.125C36 14.7117 35.5243 15.1874 34.9375 15.1874H24.3355ZM18.0136 19.7917C17.6443 19.7917 17.3419 20.1092 17.3419 20.5006C17.3419 20.8904 17.6428 21.2094 18.0136 21.2094C18.3844 21.2094 18.6853 20.8919 18.6853 20.5006C18.6839 20.1108 18.383 19.7917 18.0136 19.7917ZM16 20.5C16 19.3276 16.9027 18.3749 18.0136 18.3749C19.1245 18.3749 20.0273 19.3276 20.0273 20.5C20.0273 21.6724 19.1231 22.6251 18.0136 22.6251C16.9041 22.6251 16 21.6724 16 20.5ZM24.3355 21.5623C23.7487 21.5623 23.273 21.0866 23.273 20.4998V20.4998C23.273 19.913 23.7487 19.4373 24.3355 19.4373H34.9375C35.5243 19.4373 36 19.913 36 20.4998V20.4998C36 21.0866 35.5243 21.5623 34.9375 21.5623H24.3355ZM18.0136 26.1671C17.6443 26.1671 17.3419 26.4847 17.3419 26.876C17.3419 27.2673 17.6428 27.5849 18.0136 27.5849C18.3844 27.5849 18.6853 27.2673 18.6853 26.876C18.6853 26.4847 18.383 26.1671 18.0136 26.1671ZM16 26.8749C16 25.7024 16.9027 24.7497 18.0136 24.7497C19.1245 24.7497 20.0273 25.7024 20.0273 26.8749C20.0273 28.0473 19.1231 29 18.0136 29C16.9041 29 16 28.0473 16 26.8749ZM24.3355 27.9371C23.7487 27.9371 23.273 27.4615 23.273 26.8747V26.8747C23.273 26.2879 23.7487 25.8122 24.3355 25.8122H34.9375C35.5243 25.8122 36 26.2879 36 26.8747V26.8747C36 27.4615 35.5243 27.9371 34.9375 27.9371H24.3355Z" fill="var(--fill-0, black)"/>
</g>
</svg>
