<svg preserveAspectRatio="none" width="100%" height="100%" overflow="visible" style="display: block;" viewBox="0 0 32 32" fill="none" xmlns="http://www.w3.org/2000/svg">
<g id="Button Add">
<circle id="Background" cx="16" cy="16" r="15.5" fill="var(--fill-0, #F9F9F9)" stroke="var(--stroke-0, #EFEFF4)"/>
<path id="Icon Plus" fill-rule="evenodd" clip-rule="evenodd" d="M22 16C22 15.4477 21.5523 15 21 15H17V11C17 10.4477 16.5523 10 16 10V10C15.4477 10 15 10.4477 15 11V15H11C10.4477 15 10 15.4477 10 16V16C10 16.5523 10.4477 17 11 17H15V21C15 21.5523 15.4477 22 16 22V22C16.5523 22 17 21.5523 17 21V17H21C21.5523 17 22 16.5523 22 16V16Z" fill="var(--fill-0, #8A8A8F)"/>
</g>
</svg>
