<svg preserveAspectRatio="none" width="100%" height="100%" overflow="visible" style="display: block;" viewBox="0 0 16 20" fill="none" xmlns="http://www.w3.org/2000/svg">
<path id="Icon Notification" fill-rule="evenodd" clip-rule="evenodd" d="M7.936 20C9.344 20 10.592 19.3661 11.424 18.3835H4.448C5.28 19.3661 6.56 20 7.936 20ZM13.76 12.9952V7.29002C13.76 4.34231 11.52 1.93344 8.64 1.61648V0.633914C8.64 0.285261 8.352 0 8 0C7.648 0 7.36 0.285261 7.36 0.633914V1.61648C4.48 1.93344 2.24 4.34231 2.24 7.29002V12.9952C2.24 14.3582 1.28 15.4992 0 15.7845V17.7496H16V15.7845C14.72 15.4992 13.76 14.3582 13.76 12.9952ZM1.78425 16.3929C2.92844 15.6734 3.67062 14.3908 3.67062 12.9519V7.32117C3.67062 5.06889 5.34052 3.22328 7.50521 2.97302L8 2.91046L8.49479 2.97302C10.6595 3.22328 12.3294 5.06889 12.3294 7.32117V12.9519C12.3294 14.3908 13.0716 15.6734 14.2158 16.3929C14.3085 16.4554 1.69147 16.4554 1.78425 16.3929Z" fill="var(--fill-0, #8A8A8F)"/>
</svg>
