<svg preserveAspectRatio="none" width="100%" height="100%" overflow="visible" style="display: block;" viewBox="0 0 20 20" fill="none" xmlns="http://www.w3.org/2000/svg">
<path id="Icon Cog" fill-rule="evenodd" clip-rule="evenodd" d="M10.0028 12.2727C11.31 12.2727 12.3647 11.2468 12.3647 10C12.3647 8.75325 11.31 7.72727 10.0028 7.72727C8.69566 7.72727 7.64096 8.75325 7.64096 10C7.64096 11.2468 8.69566 12.2727 10.0028 12.2727ZM10.0028 14.0909C7.70265 14.0909 5.82289 12.2623 5.82289 10C5.82289 7.73766 7.70265 5.90909 10.0028 5.90909C12.303 5.90909 14.1827 7.73766 14.1827 10C14.1827 12.2623 12.303 14.0909 10.0028 14.0909ZM19.472 11.6699C20.0115 12.0842 20.1542 12.8273 19.8119 13.4371L17.9543 16.5628C17.6199 17.1592 16.9005 17.4086 16.2605 17.165L14.383 16.4315C14.0965 16.6181 13.8067 16.7836 13.5113 16.9276L13.2314 18.825C13.1438 19.5073 12.5528 20 11.8719 20H8.13373C7.45282 20 6.86186 19.5073 6.77649 18.8417L6.49454 16.929C6.19337 16.7835 5.9017 16.618 5.61883 16.4328L3.71744 17.1752C3.10044 17.3935 2.38388 17.1559 2.06277 16.5826L0.182272 13.4174C-0.148602 12.8273 -0.00590652 12.0842 0.536959 11.6674L2.1028 10.4762C2.09085 10.3126 2.08473 10.1557 2.08473 10C2.08473 9.84432 2.09085 9.68742 2.1028 9.52377L0.533641 8.33011C-0.0106531 7.91211 -0.164968 7.1532 0.193688 6.56286L2.05135 3.43718C2.38577 2.84078 3.10516 2.59142 3.74508 2.83505L5.62258 3.56853C5.9091 3.38194 6.19893 3.21644 6.49437 3.0724L6.77418 1.17504C6.86186 0.492746 7.45282 0 8.13373 0H11.8719C12.5528 0 13.1438 0.492746 13.2291 1.15832L13.5111 3.07104C13.8123 3.21653 14.1039 3.38196 14.3868 3.56716L16.2882 2.82476C16.9052 2.60651 17.6217 2.84414 17.9429 3.4174L19.8234 6.58263C20.1542 7.17271 20.0115 7.91575 19.4687 8.33265L17.9031 9.52356C17.915 9.68575 17.9209 9.84126 17.9209 10C17.9209 10.1587 17.915 10.3143 17.9031 10.4764L19.472 11.6699ZM15.9778 11.2963L16.0448 10.775C16.0842 10.4685 16.1028 10.2331 16.1028 10C16.1028 9.7669 16.0842 9.53149 16.0448 9.22496L15.9778 8.7037L16.3961 8.38553L18.038 7.13655L16.5703 4.66604L14.1244 5.62158L13.7197 5.3188C13.2867 4.9948 12.8322 4.73738 12.3483 4.54446L11.862 4.35057L11.7856 3.83258L11.4888 1.81818L8.51695 1.81818L8.14365 4.35057L7.65731 4.54446C7.19255 4.72975 6.7373 4.98956 6.27707 5.32533L5.87459 5.61897L5.41054 5.43768L3.43563 4.66611L1.96762 7.13654L4.02779 8.7037L3.96081 9.22496C3.92219 9.52544 3.9028 9.77256 3.9028 10C3.9028 10.2274 3.92219 10.4746 3.96081 10.775L4.02779 11.2963L3.60952 11.6145L1.96762 12.8634L3.43537 15.334L5.88127 14.3784L6.28591 14.6812C6.7189 15.0052 7.17341 15.2626 7.65731 15.4555L8.14365 15.6494L8.22 16.1674L8.51682 18.1818H11.4887L11.862 15.6494L12.3483 15.4555C12.8131 15.2703 13.2683 15.0104 13.7286 14.6747L14.131 14.381L14.5951 14.5623L16.57 15.3339L18.0382 12.8636L15.9778 11.2963ZM16.3799 15.6538L16.3904 15.6362C16.3867 15.6419 16.3833 15.6478 16.3799 15.6538ZM11.4305 18.5765L11.433 18.5592C11.4321 18.5649 11.4312 18.5707 11.4305 18.5765ZM8.57743 18.5932C8.57661 18.5868 8.57567 18.5804 8.57462 18.5741L8.57743 18.5932ZM3.63712 15.6735C3.63275 15.6657 3.62823 15.6581 3.62357 15.6507L3.63712 15.6735ZM1.75207 7.49927C1.75366 7.49666 1.75521 7.49404 1.75674 7.49142L1.75207 7.49927ZM16.3685 4.32646C16.3729 4.33426 16.3774 4.34186 16.3821 4.34928L16.3685 4.32646Z" fill="var(--fill-0, #8A8A8F)"/>
</svg>
