<svg preserveAspectRatio="none" width="100%" height="100%" overflow="visible" style="display: block;" viewBox="0 0 20 18" fill="none" xmlns="http://www.w3.org/2000/svg">
<path id="Icon Filter" fill-rule="evenodd" clip-rule="evenodd" d="M17 2C17.551 2 18 2.448 18 3C18 3.552 17.551 4 17 4C16.449 4 16 3.552 16 3C16 2.448 16.449 2 17 2M17 6C18.654 6 20 4.654 20 3C20 1.346 18.654 0 17 0C15.698 0 14.599 0.838 14.185 2H0V4H14.185C14.599 5.162 15.698 6 17 6M7 10C6.449 10 6 9.552 6 9C6 8.448 6.449 8 7 8C7.551 8 8 8.448 8 9C8 9.552 7.551 10 7 10M7 6C5.698 6 4.599 6.838 4.185 8H0V10H4.185C4.599 11.162 5.698 12 7 12C8.302 12 9.401 11.162 9.815 10H20V8H9.815C9.401 6.838 8.302 6 7 6M17 16C16.449 16 16 15.552 16 15C16 14.448 16.449 14 17 14C17.551 14 18 14.448 18 15C18 15.552 17.551 16 17 16M17 12C15.698 12 14.599 12.838 14.185 14H0V16H14.185C14.599 17.162 15.698 18 17 18C18.654 18 20 16.654 20 15C20 13.346 18.654 12 17 12" fill="var(--fill-0, #8A8A8F)"/>
</svg>
