<svg preserveAspectRatio="none" width="100%" height="100%" overflow="visible" style="display: block;" viewBox="0 0 40 40" fill="none" xmlns="http://www.w3.org/2000/svg">
<g id="Icon">
<circle id="Background" cx="20" cy="20" r="20" fill="var(--fill-0, #1D62F0)"/>
<path id="Icon Calendar" fill-rule="evenodd" clip-rule="evenodd" d="M28.1818 12.8095H25.4545V11H23.6364V16.4286H25.4545V14.619H28.1818V28.1905H11.8182V14.619H13.6364V12.8095H11.8182C10.8145 12.8095 10 13.6202 10 14.619V28.1905C10 29.1893 10.8145 30 11.8182 30H28.1818C29.1855 30 30 29.1893 30 28.1905V14.619C30 13.6202 29.1855 12.8095 28.1818 12.8095M16.3636 14.619H22.7273V12.8095H16.3636V11H14.5455V16.4286H16.3636V14.619ZM17.2727 18.2376H13.6364V21.8567H17.2727V18.2376ZM21.8182 18.2376H18.1818V21.8567H21.8182V18.2376ZM22.7273 21.8567H26.3636V18.2376H22.7273V21.8567ZM13.6364 26.3805H17.2727V22.7615H13.6364V26.3805ZM18.1818 26.3805H21.8182V22.7615H18.1818V26.3805Z" fill="var(--fill-0, white)"/>
</g>
</svg>
