<svg preserveAspectRatio="none" width="100%" height="100%" overflow="visible" style="display: block;" viewBox="0 0 20 20" fill="none" xmlns="http://www.w3.org/2000/svg">
<path id="Icon Sun" fill-rule="evenodd" clip-rule="evenodd" d="M10 13.0005C8.346 13.0005 7 11.6545 7 10.0005C7 8.3465 8.346 7.0005 10 7.0005C11.654 7.0005 13 8.3465 13 10.0005C13 11.6545 11.654 13.0005 10 13.0005M10 5.0005C7.243 5.0005 5 7.2435 5 10.0005C5 12.7575 7.243 15.0005 10 15.0005C12.757 15.0005 15 12.7575 15 10.0005C15 7.2435 12.757 5.0005 10 5.0005M11 0H9V3H11V0ZM17.7793 3.6362L16.3653 2.2222L14.2423 4.3442L15.6563 5.7582L17.7793 3.6362ZM17 11H20V9H17V11ZM14.2422 15.6567L16.3652 17.7787L17.7792 16.3647L15.6562 14.2437L14.2422 15.6567ZM9 20H11V17H9V20ZM2.2227 16.3652L3.6367 17.7792L5.7577 15.6572L4.3437 14.2432L2.2227 16.3652ZM3 9H0V11H3V9ZM5.7578 4.3442L3.6368 2.2222L2.2228 3.6362L4.3438 5.7582L5.7578 4.3442Z" fill="var(--fill-0, white)"/>
</svg>
