<svg preserveAspectRatio="none" width="100%" height="100%" overflow="visible" style="display: block;" viewBox="0 0 20 19" fill="none" xmlns="http://www.w3.org/2000/svg">
<path id="Icon Moon" fill-rule="evenodd" clip-rule="evenodd" d="M14.93 14.4395C9.0964 14.4395 4.20555 10.3964 2.95407 5.01352C2.35167 6.18609 2.02177 7.51553 2.02177 8.91708C2.02177 13.3005 5.69526 16.9436 10.2644 16.9436C12.4959 16.9436 14.5622 15.9627 16.0242 14.3869C15.6617 14.4218 15.2966 14.4395 14.93 14.4395ZM14.93 12.3831C16.7652 12.3831 18.507 11.8474 20 10.9337C19.0669 15.5025 15.0233 19 10.2644 19C4.54121 19 0 14.3997 0 8.91708C0 5.10448 1.95956 1.82753 4.91446 0C4.75894 0.756219 4.66563 1.51244 4.66563 2.30017C4.66563 7.78275 9.20684 12.3831 14.93 12.3831Z" fill="var(--fill-0, #8A8A8F)"/>
</svg>
